<?xml version="1.0" encoding="UTF-8" standalone="no"?>
<svg
   width="236.33333"
   viewBox="0 0 177.15546 52.835999"
   height="70.447998"
   version="1.0"
   id="svg50"
   sodipodi:docname="login.svg"
   inkscape:version="1.3.2 (091e20e, 2023-11-25, custom)"
   xmlns:inkscape="http://www.inkscape.org/namespaces/inkscape"
   xmlns:sodipodi="http://sodipodi.sourceforge.net/DTD/sodipodi-0.dtd"
   xmlns="http://www.w3.org/2000/svg"
   xmlns:svg="http://www.w3.org/2000/svg">
  <sodipodi:namedview
     id="namedview50"
     pagecolor="#505050"
     bordercolor="#eeeeee"
     borderopacity="1"
     inkscape:showpageshadow="0"
     inkscape:pageopacity="0"
     inkscape:pagecheckerboard="0"
     inkscape:deskcolor="#505050"
     inkscape:zoom="2.2244444"
     inkscape:cx="132.39261"
     inkscape:cy="2.4725275"
     inkscape:window-width="1920"
     inkscape:window-height="991"
     inkscape:window-x="-9"
     inkscape:window-y="-9"
     inkscape:window-maximized="1"
     inkscape:current-layer="svg50" />
  <defs
     id="defs15">
    <clipPath
       id="a">
      <path
         d="M 28.082,20.512 H 80.918 V 73.348 H 28.082 Z m 0,0"
         id="path1" />
    </clipPath>
    <clipPath
       id="b">
      <path
         d="m 54.5,20.512 c -14.59,0 -26.418,11.828 -26.418,26.418 0,14.59 11.828,26.418 26.418,26.418 14.59,0 26.418,-11.828 26.418,-26.418 C 80.918,32.34 69.09,20.512 54.5,20.512 Z m 0,0"
         id="path2" />
    </clipPath>
    <clipPath
       id="c">
      <path
         d="M 32.39,24.7 H 76.848 V 69.156 H 32.39 Z m 0,0"
         id="path3" />
    </clipPath>
    <clipPath
       id="d">
      <path
         d="m 54.617,24.7 c -12.273,0 -22.226,9.952 -22.226,22.23 0,12.277 9.953,22.226 22.226,22.226 12.278,0 22.23,-9.949 22.23,-22.226 0,-12.278 -9.952,-22.23 -22.23,-22.23 z m 0,0"
         id="path4" />
    </clipPath>
    <clipPath
       id="e">
      <path
         d="M 37.059,29.617 H 71.945 V 64.5 H 37.06 Z m 0,0"
         id="path5" />
    </clipPath>
    <clipPath
       id="f">
      <path
         d="m 54.5,29.617 c -9.633,0 -17.441,7.809 -17.441,17.442 0,9.632 7.808,17.441 17.441,17.441 9.633,0 17.445,-7.809 17.445,-17.441 0,-9.633 -7.812,-17.442 -17.445,-17.442 z m 0,0"
         id="path6" />
    </clipPath>
    <clipPath
       id="g">
      <path
         d="m 41.992,34.422 h 25.02 v 25.016 h -25.02 z m 0,0"
         id="path7" />
    </clipPath>
    <clipPath
       id="h">
      <path
         d="m 54.5,34.422 c -6.91,0 -12.508,5.598 -12.508,12.508 0,6.91 5.598,12.508 12.508,12.508 6.91,0 12.512,-5.598 12.512,-12.508 0,-6.91 -5.602,-12.508 -12.512,-12.508 z m 0,0"
         id="path8" />
    </clipPath>
    <clipPath
       id="i">
      <path
         d="M 41.992,34.422 H 66.727 V 59.156 H 41.992 Z m 0,0"
         id="path9" />
    </clipPath>
    <clipPath
       id="j">
      <path
         d="m 54.5,34.422 c -6.91,0 -12.508,5.598 -12.508,12.508 0,6.906 5.598,12.508 12.508,12.508 6.91,0 12.508,-5.602 12.508,-12.508 0,-6.91 -5.598,-12.508 -12.508,-12.508 z m 0,0"
         id="path10" />
    </clipPath>
    <clipPath
       id="k">
      <path
         d="M 11,63 H 34 V 85.66 H 11 Z m 0,0"
         id="path11" />
    </clipPath>
    <clipPath
       id="l">
      <path
         d="M 11,65 H 33 V 85.66 H 11 Z m 0,0"
         id="path12" />
    </clipPath>
    <clipPath
       id="m">
      <path
         d="M 11.36,62.61 H 34.023 V 85.64 H 11.36 Z m 0,0"
         id="path13" />
    </clipPath>
    <clipPath
       id="n">
      <path
         d="M 55,17 H 74.371 V 30 H 55 Z m 0,0"
         id="path14" />
    </clipPath>
    <clipPath
       id="o">
      <path
         d="M 55,17.043 H 74.348 V 30.098 H 55 Z m 0,0"
         id="path15" />
    </clipPath>
  </defs>
  <g
     clip-path="url(#a)"
     id="g17"
     transform="translate(-28.142,-20.512)">
    <g
       clip-path="url(#b)"
       id="g16">
      <path
         fill="#000033"
         d="M 28.082,20.512 H 80.918 V 73.348 H 28.082 Z m 0,0"
         id="path16" />
    </g>
  </g>
  <g
     clip-path="url(#c)"
     id="g19"
     transform="translate(-28.142,-20.512)">
    <g
       clip-path="url(#d)"
       id="g18">
      <path
         fill="#ffffff"
         d="M 32.39,24.7 H 76.848 V 69.156 H 32.39 Z m 0,0"
         id="path17" />
    </g>
  </g>
  <g
     clip-path="url(#e)"
     id="g21"
     transform="translate(-28.142,-20.512)">
    <g
       clip-path="url(#f)"
       id="g20">
      <path
         fill="#000033"
         d="M 37.059,29.617 H 71.945 V 64.5 H 37.06 Z m 0,0"
         id="path19" />
    </g>
  </g>
  <g
     clip-path="url(#g)"
     id="g23"
     transform="translate(-28.142,-20.512)">
    <g
       clip-path="url(#h)"
       id="g22">
      <path
         fill="#000033"
         d="m 41.992,34.422 h 25.02 v 25.016 h -25.02 z m 0,0"
         id="path21" />
    </g>
  </g>
  <g
     clip-path="url(#i)"
     id="g25"
     transform="translate(-28.142,-20.512)">
    <g
       clip-path="url(#j)"
       id="g24">
      <path
         fill="none"
         d="m 54.5,34.422 c -6.91,0 -12.508,5.598 -12.508,12.508 0,6.906 5.598,12.508 12.508,12.508 6.91,0 12.508,-5.602 12.508,-12.508 0,-6.91 -5.598,-12.508 -12.508,-12.508 z m 0,0"
         stroke="#ffffff"
         stroke-width="7.496"
         id="path23" />
    </g>
  </g>
  <path
     fill="none"
     d="M 6.698,26.418 H 46.514 M 26.475,6.769 v 39.559"
     stroke="#ffffff"
     stroke-width="3.748"
     id="path25" />
  <path
     d="m 71.551,17.231 5.688,-4.664 h -7.856 l -2.168,4.664 z m -2.046,26.425 c 7.582,0 10.625,-4.003 10.625,-9.992 v -14.84 h -6.473 v 13.215 c 0,3.492 -0.754,5.297 -4.152,5.297 -3.403,0 -4.125,-1.805 -4.125,-5.297 V 18.824 h -6.5 v 14.84 c 0,5.989 3.039,9.992 10.625,9.992 z m 31.146,-7.765 -5.925,-17.067 h -8.7 v 24.41 h 6.5 V 26.111 l 5.93,17.125 h 8.7 v -24.41 h -6.505 z m 18.872,7.344 v -24.41 h -6.5 v 24.41 z m 18.541,0.421 c 3.461,0 5.957,-0.933 8.156,-2.226 l -2.468,-5.328 c -2.079,1.144 -3.914,1.504 -5.688,1.504 -3.703,0 -6.383,-2.68 -6.383,-6.532 v -0.058 c 0,-4.156 2.711,-6.563 6.383,-6.563 1.774,0 3.61,0.364 5.688,1.504 l 2.468,-5.324 c -2.226,-1.324 -4.726,-2.258 -8.156,-2.258 -7.887,0 -13.004,5.055 -13.004,12.64 v 0.06 c 0,7.585 5.149,12.581 13.004,12.581 z m 26.212,0 c 7.765,0 12.914,-5.687 12.914,-12.671 v -0.032 c 0,-7.011 -5.118,-12.578 -12.914,-12.578 -7.825,0 -12.942,5.567 -12.942,12.578 v 0.032 c 0,6.984 5.149,12.671 12.942,12.671 z m 0,-6.082 c -3.672,0 -6.32,-2.675 -6.32,-6.59 v -0.03 c 0,-3.91 2.62,-6.5 6.32,-6.5 3.671,0 6.293,2.59 6.293,6.5 v 0.03 c 0,3.915 -2.649,6.59 -6.293,6.59 z m -44.267,-25.92 a 5.22,5.22 0 0 0 1.562,-0.234 c 0.508,-0.156 0.899,-0.352 1.172,-0.594 V 9.451 h -2.406 V 7.92 h 4.313 v 3.64 c -0.532,0.543 -1.22,0.965 -2.063,1.266 a 7.642,7.642 0 0 1 -2.64,0.453 c -1.606,0 -2.84,-0.441 -3.704,-1.328 -0.867,-0.894 -1.297,-2.16 -1.297,-3.797 0,-1.633 0.43,-2.883 1.297,-3.75 0.875,-0.863 2.13,-1.297 3.766,-1.297 2.312,0 3.785,0.856 4.422,2.563 l -1.906,0.578 c -0.211,-0.5 -0.532,-0.875 -0.97,-1.125 -0.437,-0.258 -0.952,-0.39 -1.546,-0.39 -0.98,0 -1.727,0.296 -2.234,0.89 -0.5,0.586 -0.75,1.43 -0.75,2.531 0,1.117 0.257,1.98 0.78,2.594 0.52,0.605 1.255,0.906 2.204,0.906 z m 14.945,1.484 -2.297,-3.75 h -2.422 v 3.75 h -2.062 v -9.89 h 4.937 c 1.176,0 2.082,0.258 2.719,0.766 0.645,0.511 0.969,1.242 0.969,2.187 0,0.688 -0.2,1.29 -0.594,1.797 -0.387,0.5 -0.918,0.828 -1.594,0.984 l 2.688,4.157 z M 134.72,6.279 c 0,-0.945 -0.61,-1.422 -1.828,-1.422 h -2.657 v 2.922 h 2.703 c 0.582,0 1.024,-0.129 1.329,-0.39 0.3,-0.27 0.453,-0.641 0.453,-1.11 z m 9.613,7 c -1.367,0 -2.414,-0.332 -3.14,-1 -0.72,-0.664 -1.079,-1.613 -1.079,-2.844 V 3.248 h 2.078 v 6.016 c 0,0.78 0.18,1.375 0.547,1.78 0.375,0.407 0.922,0.61 1.641,0.61 0.738,0 1.305,-0.207 1.703,-0.625 0.406,-0.426 0.61,-1.035 0.61,-1.828 V 3.248 h 2.062 v 6.078 c 0,1.25 -0.387,2.227 -1.156,2.922 -0.774,0.687 -1.86,1.031 -3.266,1.031 z M 160.4,6.373 c 0,0.637 -0.149,1.21 -0.438,1.719 -0.293,0.5 -0.71,0.886 -1.25,1.156 -0.531,0.273 -1.172,0.406 -1.922,0.406 h -2.453 v 3.485 h -2.062 V 3.248 h 4.437 c 1.188,0 2.098,0.277 2.735,0.828 0.632,0.543 0.953,1.309 0.953,2.297 z m -2.078,0.047 c 0,-1.04 -0.618,-1.563 -1.844,-1.563 h -2.14 V 8.06 h 2.202 c 0.563,0 1,-0.14 1.313,-0.421 0.312,-0.282 0.469,-0.688 0.469,-1.22 z m 14.82,1.734 c 0,1.024 -0.203,1.922 -0.61,2.703 a 4.223,4.223 0 0 1 -1.75,1.797 c -0.761,0.418 -1.648,0.625 -2.656,0.625 -1.555,0 -2.773,-0.457 -3.656,-1.375 -0.875,-0.914 -1.313,-2.164 -1.313,-3.75 0,-1.594 0.438,-2.832 1.313,-3.719 0.883,-0.882 2.11,-1.328 3.672,-1.328 1.57,0 2.797,0.45 3.672,1.344 0.882,0.899 1.328,2.133 1.328,3.703 z m -2.11,0 c 0,-1.07 -0.257,-1.91 -0.765,-2.515 -0.5,-0.602 -1.211,-0.907 -2.125,-0.907 -0.93,0 -1.649,0.305 -2.156,0.907 -0.5,0.593 -0.75,1.433 -0.75,2.515 0,1.086 0.253,1.938 0.765,2.563 0.52,0.625 1.227,0.937 2.125,0.937 0.926,0 1.64,-0.3 2.14,-0.906 0.509,-0.613 0.766,-1.477 0.766,-2.594 z m 0,0"
     fill="#000033"
     id="path50" />
</svg>
